<svg width="1852" height="121" viewBox="0 0 1852 121" fill="none" xmlns="http://www.w3.org/2000/svg">
<path d="M929 47.0811L1852 59.501L929 71.9209V72.002L926 71.9609L923 72.002V71.9209L0 59.501L923 47.0811V47.001L926 47.041L929 47.001V47.0811Z" fill="white"/>
<path d="M961.925 31.7379L938.135 13.7222L933.291 21.7708L936.557 29.1417C939.415 33.9576 945.299 43.9084 945.973 45.1837C946.815 46.7777 951.257 62.3106 953.834 66.5953C955.896 70.023 953.505 79.6295 952.052 84.0043L964.871 91.3477L974.153 79.2297C973.973 71.1695 973.166 54.5007 971.38 52.3075C969.594 50.1142 964.332 37.6806 961.925 31.7379Z" fill="#5AEDDB"/>
<path d="M857.285 55.5414L858.31 85.365L867.611 84.0477L871.271 76.8637C873.205 71.6084 877.215 60.7659 877.78 59.4388C878.486 57.7799 887.737 44.5358 889.437 39.8334C890.796 36.0715 899.758 31.8671 904.07 30.2351L901.682 15.656L886.424 16.0968C880.283 21.3208 867.858 32.461 867.282 35.2303C866.707 37.9995 860.377 49.9249 857.285 55.5414Z" fill="#5AEDDB"/>
<path d="M980.22 74.2321C980.285 73.2731 980.311 72.3213 980.289 71.3686C980.204 67.912 979.908 64.3806 979.263 60.9844C977.688 52.5969 974.802 44.4683 969.804 36.9063C962.18 25.3524 951.547 16.9612 939.628 12.0955C938.698 11.7083 937.753 11.3523 936.799 11.0197C936.602 10.9924 936.398 10.9729 936.194 10.969L935.297 10.9523C934.329 10.9264 933.474 11.6109 933.299 12.5678C931.222 24.3658 931.532 36.413 932.152 48.3164C933.257 69.6888 931.83 82.4827 952.852 93.0115C966.411 99.8045 973.964 96.5926 978.214 85.1578C979.266 82.3363 979.865 79.3804 980.078 76.378L980.22 74.2478L980.22 74.2321ZM968.613 77.1007C967.295 80.2714 965.181 83.0338 962.647 85.1351L962.384 84.8941C964.144 82.133 965.511 79.2859 966.243 76.3089C966.998 73.3874 967.097 70.2333 966.79 67.2526C966.031 61.1233 964.051 55.0106 961.187 49.5032C955.205 38.1609 946.79 28.0797 937.704 19.0327L937.937 18.7615C952.063 30.6177 977.114 57.2139 968.605 77.1084L968.613 77.1007Z" fill="white"/>
<path d="M876.135 16.7205C875.383 17.309 874.645 17.9185 873.948 18.566C871.42 20.9204 868.981 23.4958 866.868 26.24C861.651 33.0029 857.494 40.5521 855.155 49.3126C851.593 62.694 852.392 76.2109 856.666 88.351C856.999 89.3136 857.359 90.2532 857.74 91.1794C857.848 91.347 857.976 91.5011 858.114 91.6609L858.693 92.3421C859.322 93.0919 860.397 93.2656 861.227 92.7627C871.419 86.4748 880.223 78.2336 888.701 69.8639C903.932 54.8289 914.443 47.3967 908.349 24.6938C904.414 10.0486 896.997 6.54006 885.625 10.9599C882.825 12.0518 880.204 13.5611 877.823 15.4073L876.135 16.7205ZM885.987 23.4916C889.233 22.3676 892.7 22.113 895.952 22.6112L895.946 22.97C892.724 23.4871 889.676 24.3661 886.961 25.7936C884.275 27.1733 881.856 29.1914 879.828 31.4028C875.754 36.049 872.499 41.5835 870.286 47.3893C865.782 59.3941 863.85 72.3862 863.12 85.187L862.765 85.1959C862.243 66.7542 865.463 30.3634 885.982 23.5012L885.987 23.4916Z" fill="white"/>
<path d="M934.069 55.5681L922.25 28.3137L914.119 32.8575L913.349 40.8184C913.473 46.3769 913.712 57.8516 913.673 59.2824C913.624 61.071 909.885 76.6429 910.026 81.6052C910.138 85.575 903.372 92.6715 899.976 95.7234L907.499 108.373L921.466 102.512C925.247 95.4796 932.692 80.7221 932.215 77.9517C931.739 75.1814 933.253 61.875 934.069 55.5681Z" fill="#5AEDDB"/>
<g filter="url(#filter0_d_239_478)">
<path d="M927.212 99.5135C927.734 98.7128 928.233 97.9041 928.676 97.0558C930.308 94.0086 931.784 90.7877 932.905 87.5104C935.657 79.4311 937.159 70.946 936.546 61.8946C935.596 48.0814 930.487 35.5436 922.513 25.427C921.887 24.6221 921.236 23.8565 920.578 23.0987C920.413 22.9801 920.249 22.8614 920.076 22.7664L919.306 22.3072C918.474 21.8006 917.387 21.9855 916.763 22.7308C909.144 31.9729 903.48 42.6148 898.153 53.2658C888.587 72.4078 881.034 82.8383 894.137 102.353C902.597 114.95 910.738 115.869 920.083 108.018C922.38 106.082 924.371 103.808 926.025 101.288L927.204 99.5056L927.212 99.5135ZM915.703 96.293C912.989 98.4079 909.805 99.7656 906.553 100.344L906.436 100.005C909.322 98.4733 911.917 96.665 914.034 94.4379C916.127 92.2657 917.766 89.5726 918.972 86.8228C921.329 81.1107 922.619 74.8281 922.846 68.6125C923.23 55.7955 920.869 42.8821 917.427 30.5234L917.766 30.4066C924.212 47.6862 932.913 83.1747 915.703 96.293Z" fill="white"/>
</g>
<defs>
<filter id="filter0_d_239_478" x="876.524" y="8.42197" width="70.7576" height="112.232" filterUnits="userSpaceOnUse" color-interpolation-filters="sRGB">
<feFlood flood-opacity="0" result="BackgroundImageFix"/>
<feColorMatrix in="SourceAlpha" type="matrix" values="0 0 0 0 0 0 0 0 0 0 0 0 0 0 0 0 0 0 127 0" result="hardAlpha"/>
<feOffset dy="-3"/>
<feGaussianBlur stdDeviation="5.3"/>
<feComposite in2="hardAlpha" operator="out"/>
<feColorMatrix type="matrix" values="0 0 0 0 0.352941 0 0 0 0 0.929412 0 0 0 0 0.858824 0 0 0 1 0"/>
<feBlend mode="normal" in2="BackgroundImageFix" result="effect1_dropShadow_239_478"/>
<feBlend mode="normal" in="SourceGraphic" in2="effect1_dropShadow_239_478" result="shape"/>
</filter>
</defs>
</svg>
