<svg width="122" height="121" viewBox="0 0 122 121" fill="none" xmlns="http://www.w3.org/2000/svg">
<path d="M76.3069 119.703C77.1763 119.518 78.0353 119.312 78.884 119.045C81.9578 118.111 85.042 116.961 87.9295 115.543C95.0397 112.041 101.591 107.46 107.118 101.133C115.542 91.4688 120.386 79.9349 121.752 68.1236C121.866 67.189 121.938 66.2647 122 65.3403C121.969 65.1554 121.938 64.9706 121.886 64.796L121.679 63.9948C121.462 63.1218 120.624 62.5364 119.723 62.6186C108.639 63.7175 97.9272 67.0041 87.4327 70.5167C68.5758 76.8331 56.7566 78.7538 52.6167 100.055C49.9465 113.807 54.7177 119.703 66.0298 120.637C68.8138 120.863 71.6186 120.668 74.3612 120.093L76.3069 119.693V119.703ZM70.8216 110.11C67.6443 109.73 64.6533 108.549 62.128 106.813L62.2729 106.515C65.1811 107.388 68.079 107.892 70.9355 107.809C73.7402 107.748 76.5864 107.049 79.1841 106.033C84.4831 103.824 89.4509 100.548 93.6735 96.6247C102.326 88.48 109.229 78.4867 115.056 68.1544L115.356 68.2982C108.287 83.8069 90.7756 112.708 70.8216 110.11Z" fill="#F1F2F1" fill-opacity="0.26"/>
<path d="M104.83 18.0133C104.23 17.356 103.609 16.7295 102.957 16.1338C100.587 13.9769 98.0307 11.9125 95.3398 10.1665C88.7057 5.84259 81.3989 2.55598 73.1089 1.03593C60.4514 -1.29551 47.9698 0.399147 37.0199 5.20581C36.1609 5.57555 35.3122 5.97611 34.4739 6.3972C34.329 6.51018 34.1841 6.63342 34.0496 6.76694L33.4597 7.35237C32.818 7.97888 32.7248 8.9854 33.2527 9.71462C39.8143 18.6501 48.0836 26.1579 56.4564 33.3679C71.484 46.3192 79.1324 55.46 99.7487 48.2295C113.048 43.5666 115.77 36.4902 110.854 26.3428C109.643 23.8367 108.049 21.5464 106.176 19.482L104.841 18.0236L104.83 18.0133ZM99.2623 27.565C100.535 30.4716 101.022 33.6452 100.794 36.675L100.463 36.6956C99.7488 33.7582 98.7241 31.0262 97.2027 28.6331C95.7331 26.2606 93.6839 24.1757 91.4898 22.4708C86.8946 19.0506 81.5231 16.4522 75.9861 14.8294C64.5291 11.5428 52.3477 10.6801 40.4249 10.9266L40.3939 10.5979C57.45 8.80053 91.4277 9.18054 99.2623 27.5753V27.565Z" fill="#F1F2F1" fill-opacity="0.26"/>
<path d="M3.39354 41.2147C3.0727 42.0363 2.77256 42.8682 2.52417 43.7104C1.62376 46.7711 0.899284 49.9653 0.516349 53.1389C-0.435812 60.9651 -0.166722 68.9146 2.13089 76.9668C5.64974 89.2607 12.7185 99.6033 21.9089 107.214C22.6334 107.82 23.3682 108.395 24.1134 108.95C24.279 109.032 24.4549 109.093 24.6412 109.155L25.4278 109.422C26.2868 109.72 27.2286 109.35 27.653 108.559C32.8071 98.7611 35.9223 88.0693 38.7167 77.4289C43.7362 58.3153 48.6005 47.4592 32.9312 32.3306C22.8197 22.5735 15.2231 23.2924 8.23714 32.1662C6.51911 34.3539 5.14262 36.788 4.11801 39.3762L3.39354 41.2147ZM14.4883 41.9336C16.5479 39.5097 19.1974 37.6713 22.0331 36.5313L22.1987 36.8188C19.8701 38.7497 17.8519 40.886 16.3616 43.2996C14.8712 45.6619 13.8984 48.4041 13.3291 51.1156C12.2838 56.7233 12.3149 62.6495 13.3084 68.2983C15.4198 79.9452 20.0564 91.1608 25.5623 101.657L25.2829 101.832C16.0925 87.4531 1.35467 57.0725 14.4883 41.9439V41.9336Z" fill="#49C4B1"/>
</svg>
