<svg width="122" height="122" viewBox="0 0 122 122" fill="none" xmlns="http://www.w3.org/2000/svg">
<path d="M76.3062 119.996C77.1756 119.811 78.0346 119.606 78.8832 119.339C81.9571 118.404 85.0412 117.254 87.9288 115.837C95.0389 112.334 101.59 107.754 107.117 101.427C115.541 91.7622 120.385 80.2283 121.751 68.417C121.865 67.4824 121.938 66.5581 122 65.6337C121.969 65.4488 121.938 65.264 121.886 65.0894L121.679 64.2882C121.461 63.4152 120.623 62.8298 119.723 62.912C108.638 64.0109 97.9265 67.2975 87.432 70.8101C68.5751 77.1265 56.7558 79.0472 52.616 100.348C49.9458 114.101 54.717 119.996 66.0291 120.931C68.8131 121.157 71.6178 120.962 74.3605 120.386L76.3062 119.986V119.996ZM70.8209 110.403C67.6436 110.023 64.6526 108.842 62.1273 107.107L62.2722 106.809C65.1804 107.682 68.0783 108.185 70.9348 108.103C73.7395 108.041 76.5856 107.343 79.1834 106.326C84.4824 104.118 89.4502 100.841 93.6728 96.9181C102.325 88.7734 109.228 78.7801 115.055 68.4478L115.355 68.5916C108.286 84.1003 90.7749 113.002 70.8209 110.403Z" fill="#F1F2F1" fill-opacity="0.26"/>
<path d="M104.83 18.3066C104.229 17.6493 103.608 17.0228 102.956 16.4271C100.586 14.2703 98.03 12.2059 95.3391 10.4599C88.705 6.13592 81.3982 2.84932 73.1082 1.32926C60.4506 -1.00217 47.969 0.692482 37.0192 5.49914C36.1602 5.86888 35.3115 6.26944 34.4732 6.69054C34.3283 6.80352 34.1834 6.92676 34.0489 7.06028L33.4589 7.6457C32.8173 8.27221 32.7241 9.27874 33.2519 10.008C39.8136 18.9434 48.0829 26.4512 56.4557 33.6612C71.4833 46.6125 79.1316 55.7534 99.748 48.5228C113.047 43.86 115.769 36.7835 110.853 26.6361C109.642 24.1301 108.048 21.8397 106.175 19.7753L104.84 18.3169L104.83 18.3066ZM99.2616 27.8583C100.535 30.7649 101.021 33.9385 100.793 36.9684L100.462 36.9889C99.748 34.0515 98.7234 31.3195 97.202 28.9265C95.7324 26.554 93.6832 24.469 91.4891 22.7641C86.8938 19.344 81.5224 16.7455 75.9854 15.1227C64.5284 11.8361 52.3469 10.9734 40.4242 11.2199L40.3932 10.8912C57.4493 9.09386 91.4269 9.47388 99.2616 27.8686V27.8583Z" fill="#49C4B1"/>
<path d="M3.39354 41.508C3.0727 42.3297 2.77256 43.1616 2.52417 44.0038C1.62376 47.0644 0.899284 50.2586 0.516349 53.4322C-0.435812 61.2584 -0.166722 69.2079 2.13089 77.2601C5.64974 89.5541 12.7185 99.8966 21.9089 107.507C22.6334 108.113 23.3682 108.688 24.1134 109.243C24.279 109.325 24.4549 109.387 24.6412 109.448L25.4278 109.715C26.2868 110.013 27.2286 109.643 27.653 108.853C32.8071 99.0544 35.9223 88.3627 38.7167 77.7223C43.7362 58.6086 48.6005 47.7526 32.9312 32.6239C22.8197 22.8668 15.2231 23.5857 8.23714 32.4596C6.51911 34.6472 5.14262 37.0814 4.11801 39.6696L3.39354 41.508ZM14.4883 42.227C16.5479 39.8031 19.1974 37.9646 22.0331 36.8246L22.1987 37.1122C19.8701 39.043 17.8519 41.1793 16.3616 43.5929C14.8712 45.9552 13.8984 48.6975 13.3291 51.4089C12.2838 57.0167 12.3149 62.9428 13.3084 68.5917C15.4198 80.2386 20.0564 91.4541 25.5623 101.951L25.2829 102.125C16.0925 87.7464 1.35467 57.3659 14.4883 42.2372V42.227Z" fill="#49C4B1"/>
</svg>
