<svg width="122" height="122" viewBox="0 0 122 122" fill="none" xmlns="http://www.w3.org/2000/svg">
<path d="M76.3062 120.29C77.1756 120.105 78.0346 119.899 78.8832 119.632C81.9571 118.698 85.0412 117.547 87.9288 116.13C95.0389 112.628 101.59 108.047 107.117 101.72C115.541 92.0555 120.385 80.5216 121.751 68.7104C121.865 67.7757 121.938 66.8514 122 65.927C121.969 65.7422 121.938 65.5573 121.886 65.3827L121.679 64.5816C121.461 63.7086 120.623 63.1231 119.723 63.2053C108.638 64.3043 97.9265 67.5909 87.432 71.1034C68.5751 77.4199 56.7558 79.3405 52.616 100.642C49.9458 114.394 54.717 120.29 66.0291 121.224C68.8131 121.45 71.6178 121.255 74.3605 120.68L76.3062 120.279V120.29ZM70.8209 110.697C67.6436 110.317 64.6526 109.136 62.1273 107.4L62.2722 107.102C65.1804 107.975 68.0783 108.478 70.9348 108.396C73.7395 108.335 76.5856 107.636 79.1834 106.619C84.4824 104.411 89.4502 101.135 93.6728 97.2114C102.325 89.0668 109.228 79.0734 115.055 68.7412L115.355 68.885C108.286 84.3936 90.7749 113.295 70.8209 110.697Z" fill="#49C4B1"/>
<path d="M104.83 18.6001C104.229 17.9428 103.608 17.3163 102.956 16.7206C100.586 14.5637 98.03 12.4993 95.3391 10.7533C88.705 6.42938 81.3982 3.14278 73.1082 1.62272C60.4506 -0.708714 47.969 0.985939 37.0192 5.7926C36.1602 6.16234 35.3115 6.5629 34.4732 6.984C34.3283 7.09697 34.1834 7.22022 34.0489 7.35373L33.4589 7.93916C32.8173 8.56567 32.7241 9.5722 33.2519 10.3014C39.8136 19.2369 48.0829 26.7447 56.4557 33.9547C71.4833 46.906 79.1316 56.0468 99.748 48.8163C113.047 44.1534 115.769 37.077 110.853 26.9296C109.642 24.4235 108.048 22.1332 106.175 20.0688L104.84 18.6104L104.83 18.6001ZM99.2616 28.1518C100.535 31.0584 101.021 34.232 100.793 37.2618L100.462 37.2824C99.748 34.345 98.7234 31.613 97.202 29.2199C95.7324 26.8474 93.6832 24.7625 91.4891 23.0575C86.8938 19.6374 81.5224 17.0389 75.9854 15.4162C64.5284 12.1296 52.3469 11.2669 40.4242 11.5133L40.3932 11.1847C57.4493 9.38732 91.4269 9.76733 99.2616 28.162V28.1518Z" fill="#49C4B1"/>
<path d="M3.39354 41.8015C3.0727 42.6231 2.77256 43.455 2.52417 44.2972C1.62376 47.3579 0.899284 50.552 0.516349 53.7257C-0.435812 61.5519 -0.166722 69.5014 2.13089 77.5536C5.64974 89.8475 12.7185 100.19 21.9089 107.801C22.6334 108.407 23.3682 108.982 24.1134 109.536C24.279 109.618 24.4549 109.68 24.6412 109.742L25.4278 110.009C26.2868 110.307 27.2286 109.937 27.653 109.146C32.8071 99.3479 35.9223 88.6561 38.7167 78.0157C43.7362 58.9021 48.6005 48.046 32.9312 32.9174C22.8197 23.1603 15.2231 23.8792 8.23714 32.753C6.51911 34.9407 5.14262 37.3748 4.11801 39.963L3.39354 41.8015ZM14.4883 42.5204C16.5479 40.0965 19.1974 38.2581 22.0331 37.118L22.1987 37.4056C19.8701 39.3365 17.8519 41.4728 16.3616 43.8864C14.8712 46.2487 13.8984 48.9909 13.3291 51.7024C12.2838 57.3101 12.3149 63.2363 13.3084 68.8851C15.4198 80.532 20.0564 91.7476 25.5623 102.244L25.2829 102.419C16.0925 88.0399 1.35467 57.6593 14.4883 42.5307V42.5204Z" fill="#49C4B1"/>
</svg>
